<svg width="50" height="50" viewBox="0 0 50 50" fill="none" xmlns="http://www.w3.org/2000/svg">
<rect width="50" height="50" rx="10" fill="#F59520"/>
<path d="M24.5804 6.79911C24.4214 6.8046 24.2681 6.86 24.1424 6.95746L6.71603 20.5555C6.55747 20.6791 6.45452 20.8607 6.42982 21.0602C6.40512 21.2598 6.4607 21.4609 6.58432 21.6195C6.70795 21.778 6.88951 21.881 7.08904 21.9057C7.28858 21.9304 7.48975 21.8748 7.64831 21.7512L8.6975 20.9329V40.8527C8.69752 41.0536 8.77736 41.2463 8.91944 41.3884C9.06153 41.5305 9.25423 41.6103 9.45517 41.6103H19.9352C20.0171 41.6239 20.1005 41.6239 20.1824 41.6103H29.0272C29.1091 41.6239 29.1925 41.6239 29.2744 41.6103H39.7618C39.9628 41.6103 40.1555 41.5305 40.2976 41.3884C40.4396 41.2463 40.5195 41.0536 40.5195 40.8527V20.9329L41.5687 21.7512C41.6472 21.8124 41.737 21.8576 41.833 21.8841C41.9289 21.9106 42.0292 21.918 42.128 21.9057C42.2268 21.8935 42.3222 21.8619 42.4088 21.8128C42.4954 21.7637 42.5715 21.698 42.6327 21.6195C42.6939 21.541 42.7391 21.4512 42.7656 21.3552C42.7921 21.2593 42.7995 21.159 42.7872 21.0602C42.775 20.9614 42.7434 20.866 42.6943 20.7794C42.6452 20.6928 42.5795 20.6167 42.501 20.5555L36.7312 16.0539V10.546H32.1852V12.5053L25.0746 6.95746C24.9337 6.84814 24.7586 6.79207 24.5804 6.79911ZM24.6085 8.51718L39.0042 19.7505V40.095H29.9122V25.6993H19.3048V40.095H10.2128V19.7505L24.6085 8.51718ZM33.7005 12.0613H35.2158V14.8715L33.7005 13.6877V12.0613ZM20.8202 27.2147H28.3968V40.095H20.8202V27.2147Z" fill="black"/>
</svg>
